<svg width="32" height="32" viewBox="0 0 32 32" fill="none" xmlns="http://www.w3.org/2000/svg">
<rect width="32" height="32" rx="5" fill="white"/>
<path fill-rule="evenodd" clip-rule="evenodd" d="M10.0606 9.29971L10.5455 7.94191L11.6364 7.37616V8.16821L10.9091 9.29971H10.0606ZM17.8182 9.63916L17.5758 9.07341H17.697L18.4242 9.41286L19.6364 10.7707L20 12.4679L19.3939 14.3915L18.1818 15.8624L15.0303 18.1254L12.8485 20.6147L11.8788 22.5382L11.6364 23.104L10.9091 23.2171L10.6667 22.5382L10.7879 20.5015L11.8788 20.1621L12.1212 19.9358L14.1818 17.5596L15.5152 16.0887L15.6364 15.0703L15.0303 14.3915L14.1818 14.2783L14.0606 15.4098L13.697 16.0887L13.0909 15.6361L13.2121 14.5046L12.6061 14.7309V15.2966L12 15.6361L9.81818 15.2966L8.36364 12.9205L8 11.2233L8.48485 10.8838L8.9697 11.3364L10.4242 11.4496L9.33333 12.4679L9.81818 13.1468L11.8788 13.3731L11.0303 13.9389H10.4242L9.93939 13.8257L10.0606 14.052L10.4242 14.6178L11.1515 14.7309L11.5152 14.844L12.4848 13.8257L14.1818 13.4863H14.6667L15.2727 13.5994L15.7576 13.8257L16.4848 14.6178L16.6061 15.5229L17.5758 14.052L17.8182 13.7126H18.303L18.4242 14.1652L18.6667 13.8257L18.7879 12.1285L17.8182 9.63916ZM16 9.63916L16.4848 9.41286L16.9697 10.2049V11.5627L16.3636 12.3548L15.2727 12.6942L13.2121 12.5811L15.1515 11.9022L15.8788 11.2233L16 9.63916ZM14.4242 25.5933L14.7879 24.2355L16.3636 21.8593L20.7273 18.6911L22.5455 16.5413L23.6364 16.7676L22.4242 19.2569L17.5758 22.8777L15.2727 25.4801L14.5455 26.8379L14.4242 25.5933ZM15.7576 25.7064L16.1212 25.367L16.7273 25.4801L16.9697 25.9327L16.6061 26.3853H16.1212L15.7576 25.7064Z" fill="#0B171A"/>
<path fill-rule="evenodd" clip-rule="evenodd" d="M15.8788 5.4526L16.6061 5L17.9394 5.2263L18.9091 6.3578L19.0303 7.37615L19.3939 7.4893L22.303 9.86544V9.97859L21.9394 10.5443H21.8182L19.7576 8.8471L19.0303 8.28135L18.5455 8.6208L17.5758 8.8471L17.697 9.07339H17.5758L17.2121 8.73395L18.0606 7.82875V6.8104L17.2121 5.79205L16.6061 5.9052L16.1212 6.5841L15.5152 7.263L11.6364 8.1682V7.37615L13.2121 6.8104V5.9052L13.5758 5.2263L14.6667 5.4526L15.3939 6.1315L15.8788 5.4526ZM16.7273 6.69725L17.0909 6.47095L17.4545 7.0367L16.9697 7.9419L16 7.82875L16.7273 6.69725ZM15.2727 8.3945L15.3939 8.28135L16.4848 9.41284L16 9.63914L15.2727 8.3945ZM8.48485 10.6575L10.0606 9.29969H10.9091V9.75229L8.9697 11.3364L8.48485 10.8838V10.6575ZM23.1515 11.9021L23.2727 11.789L24 13.9388L23.6364 16.7676L22.5455 16.5413L23.2727 14.2783L23.1515 11.9021ZM17.8182 13.7125L18.0606 12.9205L18.303 13.7125H17.8182ZM11.2727 18.8043L13.0909 15.6361L13.697 16.0887L13.5758 16.5413L12.6061 18.0122L12 19.9358L11.8788 20.1621L10.7879 20.5015L11.2727 18.8043ZM10.9091 23.2171L11.6364 23.104L11.3939 24.4618L10.9091 23.2171Z" fill="#0D1B1D"/>
<path d="M20.8485 10.7707L20.9697 12.4679V13.26L21.3333 13.3731L21.2121 14.5046L20.1212 16.5413L15.5152 20.1621L13.9394 21.8593H13.3333L13.0909 22.6514L13.2121 24.9144L13.4545 23.7829L14.5455 22.0856L16.3636 20.3884L20.3636 17.6728L21.4545 16.4281L22.303 14.3914V12.1285L21.8182 10.5444L19.7576 8.84711L20.8485 10.7707Z" fill="#CE3C08"/>
<path d="M20.9697 13.2599L20.1212 14.9572L18.5455 16.6544L15.6364 18.8043L13.8182 20.841L13.3333 21.8593H13.9394L15.5152 20.1621L20.1212 16.5413L21.2121 14.5046L21.3333 13.3731L20.9697 13.2599Z" fill="#EE5507"/>
<path d="M22.303 9.97861L21.9394 10.5444L22.5455 10.7707L22.303 9.97861Z" fill="#212F2E"/>
<path d="M14.9091 8.05505L15.2727 8.3945L15.3939 8.28135L14.9091 8.05505Z" fill="#7A7173"/>
<path d="M23.0303 11.6758L23.1515 11.9021L23.2727 11.789L23.0303 11.6758Z" fill="#7A7173"/>
<path d="M12 19.9358L11.8788 20.1621L12.1212 19.9358H12Z" fill="#7A7173"/>
<path d="M13.8182 8.8471L13.3333 8.73395L12 9.18655L11.3939 10.6575L13.3333 9.63915L13.8182 8.8471Z" fill="#0B171A"/>
<path d="M15.1515 9.526L14.5455 8.73395L14.303 10.2049L13.5758 10.8838L11.7576 11.4495L13.8182 11.6758L15.0303 10.8838L15.1515 9.526Z" fill="#0B171A"/>
<path d="M11.8788 11.9021L10.9091 11.6758L10.5455 11.9021L10.7879 12.1284L11.8788 11.9021Z" fill="#0B171A"/>
<path d="M12.3636 12.6942L10.6667 12.4679L10.303 12.6942L10.9091 12.9205L12.3636 12.6942Z" fill="#212F2E"/>
</svg>
